<svg width="32" height="32" viewBox="0 0 32 32" fill="none" xmlns="http://www.w3.org/2000/svg">
<g clip-path="url(#clip0)">
<path d="M16.0056 7.78418C11.4683 7.78418 7.79492 11.4615 7.79492 15.9948C7.79492 20.5322 11.4723 24.2055 16.0056 24.2055C20.5429 24.2055 24.2163 20.5282 24.2163 15.9948C24.2163 11.4575 20.5389 7.78418 16.0056 7.78418V7.78418ZM16.0056 21.3242C13.0603 21.3242 10.6763 18.9388 10.6763 15.9948C10.6763 13.0508 13.0616 10.6655 16.0056 10.6655C18.9496 10.6655 21.3349 13.0508 21.3349 15.9948C21.3363 18.9388 18.9509 21.3242 16.0056 21.3242V21.3242Z" fill="black"/>
<path d="M22.5976 0.101492C19.6536 -0.0358412 12.3616 -0.0291745 9.41497 0.101492C6.82564 0.222825 4.54164 0.848158 2.7003 2.68949C-0.37703 5.76682 0.016303 9.91349 0.016303 15.9948C0.016303 22.2188 -0.330364 26.2695 2.7003 29.3002C5.78964 32.3882 9.9963 31.9842 16.0056 31.9842C22.171 31.9842 24.299 31.9881 26.479 31.1441C29.443 29.9935 31.6803 27.3442 31.899 22.5855C32.0376 19.6402 32.0296 12.3495 31.899 9.40282C31.635 3.78549 28.6203 0.378825 22.5976 0.101492V0.101492ZM27.2576 27.2642C25.2403 29.2815 22.4416 29.1015 15.967 29.1015C9.3003 29.1015 6.62697 29.2002 4.6763 27.2442C2.42964 25.0082 2.8363 21.4175 2.8363 15.9735C2.8363 8.60682 2.0803 3.30149 9.47364 2.92282C11.1723 2.86282 11.6723 2.84282 15.9483 2.84282L16.0083 2.88282C23.1136 2.88282 28.6883 2.13882 29.023 9.53082C29.099 11.2175 29.1163 11.7242 29.1163 15.9935C29.115 22.5828 29.2403 25.2722 27.2576 27.2642V27.2642Z" fill="black"/>
<path d="M24.5417 9.37932C25.6014 9.37932 26.4604 8.52031 26.4604 7.46066C26.4604 6.40101 25.6014 5.54199 24.5417 5.54199C23.4821 5.54199 22.623 6.40101 22.623 7.46066C22.623 8.52031 23.4821 9.37932 24.5417 9.37932Z" fill="black"/>
</g>
<defs>
<clipPath id="clip0">
<rect width="32" height="32" fill="white"/>
</clipPath>
</defs>
</svg>
